<?xml version="1.0" encoding="UTF-8" standalone="no"?>
<!-- Created with Inkscape (http://www.inkscape.org/) -->

<svg
   xmlns:dc="http://purl.org/dc/elements/1.1/"
   xmlns:cc="http://creativecommons.org/ns#"
   xmlns:rdf="http://www.w3.org/1999/02/22-rdf-syntax-ns#"
   xmlns:svg="http://www.w3.org/2000/svg"
   xmlns="http://www.w3.org/2000/svg"
   xmlns:sodipodi="http://sodipodi.sourceforge.net/DTD/sodipodi-0.dtd"
   xmlns:inkscape="http://www.inkscape.org/namespaces/inkscape"
   width="744.09448819"
   height="1052.3622047"
   id="svg3857"
   version="1.1"
   inkscape:version="0.48.4 r9939"
   sodipodi:docname="odroid-lambda.svg">
  <sodipodi:namedview
     id="base"
     pagecolor="#ffffff"
     bordercolor="#666666"
     borderopacity="1.0"
     inkscape:pageopacity="0.0"
     inkscape:pageshadow="2"
     inkscape:zoom="1.979899"
     inkscape:cx="190.51083"
     inkscape:cy="856.94363"
     inkscape:document-units="px"
     inkscape:current-layer="layer2"
     showgrid="false"
     inkscape:window-width="1600"
     inkscape:window-height="873"
     inkscape:window-x="0"
     inkscape:window-y="27"
     inkscape:window-maximized="1" />
  <defs
     id="defs3859">
    <inkscape:path-effect
       effect="spiro"
       id="path-effect3855"
       is_visible="true" />
    <inkscape:path-effect
       effect="spiro"
       id="path-effect3855-2"
       is_visible="true" />
  </defs>
  <metadata
     id="metadata3862">
    <rdf:RDF>
      <cc:Work
         rdf:about="">
        <dc:format>image/svg+xml</dc:format>
        <dc:type
           rdf:resource="http://purl.org/dc/dcmitype/StillImage" />
        <dc:title />
      </cc:Work>
    </rdf:RDF>
  </metadata>
  <g
     style="display:none"
     inkscape:label="main"
     inkscape:groupmode="layer"
     id="layer1">
    <path
       style="font-size:medium;font-style:normal;font-variant:normal;font-weight:normal;font-stretch:normal;text-indent:0;text-align:start;text-decoration:none;line-height:normal;letter-spacing:normal;word-spacing:normal;text-transform:none;direction:ltr;block-progression:tb;writing-mode:lr-tb;text-anchor:start;baseline-shift:baseline;color:#000000;fill:#000000;fill-opacity:1;stroke:none;stroke-width:1px;marker:none;visibility:visible;display:inline;overflow:visible;enable-background:accumulate;font-family:Sans;-inkscape-font-specification:Sans"
       d="m 240.15625,52.5 0,0.5 -0.5625,152.65625 -78.5,107.59375 -47.71875,0 -0.5,0 0,0.5 0.1875,7.125 0,25.71875 0,0.5 0.5,0 71.0625,0 0.15625,0 0.125,-0.125 102.4375,-78 54.4375,77.375 0.15625,0.21875 0.25,0 79.8125,0 0.5,0 0,-0.5 0,-61.125 0,-0.5 -0.5,0 -46.3125,0 -0.5,0 0,0.5 0,31.84375 -20.59375,0 -66.625,-112.84375 0.90625,-150.8125 0,-0.5 -0.5,0 -47.71875,-0.125 -0.5,0 z m 1,1 46.71875,0.125 -0.90625,150.46875 0,0.15625 0.0625,0.125 66.84375,113.15625 0.4375,-0.25 0,0.5 21.375,0 0.5,0 0,-0.5 0,-31.84375 45.3125,0 0,60.125 -79.0625,0 -54.5625,-77.59375 -0.28125,-0.40625 -0.40625,0.3125 -102.75,78.21875 -70.375,0 0,-25.21875 0,-0.0312 -0.1875,-6.59375 47.5,0 0.25,0 0.15625,-0.21875 78.71875,-107.9375 0.0937,-0.125 0,-0.15625 0.5625,-152.3125 z"
       id="path3853"
       inkscape:connector-curvature="0" />
  </g>
  <g
     inkscape:label="no"
     id="layer2"
     inkscape:groupmode="layer">
    <path
       sodipodi:nodetypes="ccccccccccsccccccc"
       inkscape:connector-curvature="0"
       id="path3853-3"
       d="m 187.95094,83.342089 -21.3792,0 0,32.324951 -46.301,0 0,-61.114251 102.0254,-0.50508 32.4899,78.309631 7.8571,86.6814 8.9286,92.3014 c -0.1485,8.5705 90.9755,2.7354 121.4286,2.2146 0.02,1.1876 -0.9203,-83.8061 -1.4729,-116.8717 -0.5426,-32.4715 36.3221,-14.8896 32.85,-0.5196 l 2.8545,154.7549 -65.1882,-0.4702 -81.1653,2.1621 -69.8424,-2.2692 c -10.2867,-134.9986 -10.3431,-93.3833 -10.0455,-143.7077 -9.4985,-12.1632 9.2388,-85.5684 -13.0396,-123.291251"
       inkscape:transform-center-y="-19.192898"
       inkscape:transform-center-x="-36.365491"
       style="fill:none;stroke:#000000;stroke-width:1px;stroke-linecap:butt;stroke-linejoin:miter;stroke-opacity:1;display:inline" />
  </g>
</svg>
